<?xml version="1.0" standalone="no"?>
<!DOCTYPE svg PUBLIC "-//W3C//DTD SVG 20010904//EN"
 "http://www.w3.org/TR/2001/REC-SVG-20010904/DTD/svg10.dtd">
<svg version="1.0" xmlns="http://www.w3.org/2000/svg"
 width="200.000000pt" height="200.000000pt" viewBox="0 0 200.000000 200.000000"
 preserveAspectRatio="xMidYMid meet">
<metadata>
Created by potrace 1.14, written by Peter Selinger 2001-2017
</metadata>
<g transform="translate(0.000000,200.000000) scale(0.100000,-0.100000)"
fill="#000000" stroke="none">
<path d="M0 1000 l0 -1000 1000 0 1000 0 0 1000 0 1000 -1000 0 -1000 0 0
-1000z m1370 480 c27 -14 63 -50 111 -115 l71 -95 64 0 c74 0 107 -22 102 -68
-3 -23 -17 -36 -66 -58 -2 -1 12 -23 30 -49 l33 -47 3 -239 3 -240 -34 -34
c-26 -26 -44 -35 -68 -35 -48 0 -95 32 -110 74 l-13 36 -496 0 -495 0 -17 -40
c-32 -77 -129 -92 -183 -28 l-26 31 3 238 3 237 33 47 c18 26 32 48 30 49 -52
23 -63 34 -66 63 -4 44 26 63 104 63 l62 0 71 95 c106 141 80 134 479 135 315
0 335 -1 372 -20z"/>
<path d="M582 984 c-44 -30 -27 -76 42 -111 228 -116 501 -121 729 -13 79 37
105 68 89 105 -18 39 -56 42 -121 10 -93 -45 -171 -66 -272 -72 -140 -8 -265
17 -376 77 -45 24 -61 25 -91 4z"/>
</g>
</svg>
