<?xml version="1.0" standalone="no"?>
<!DOCTYPE svg PUBLIC "-//W3C//DTD SVG 20010904//EN"
 "http://www.w3.org/TR/2001/REC-SVG-20010904/DTD/svg10.dtd">
<svg version="1.0" xmlns="http://www.w3.org/2000/svg"
 width="512.000000pt" height="512.000000pt" viewBox="0 0 512.000000 512.000000"
 preserveAspectRatio="xMidYMid meet">
<metadata>
Created by potrace 1.14, written by Peter Selinger 2001-2017
</metadata>
<g transform="translate(0.000000,512.000000) scale(0.100000,-0.100000)"
fill="#000000" stroke="none">
<path d="M1702 3493 l3 -398 302 0 302 0 162 -162 162 -163 0 -210 0 -210
-164 -163 -164 -163 -302 0 -303 1 0 -397 0 -398 397 2 398 3 0 302 0 301 162
163 162 162 303 1 303 1 0 395 0 395 -303 1 -303 1 -162 162 -162 163 0 304 0
304 -398 0 -397 0 2 -397z m521 128 c4 0 7 -59 7 -131 l0 -130 -130 0 c-71 0
-131 3 -131 8 -3 16 -5 247 -3 252 2 4 232 5 257 1z m5 -1993 l-3 -133 -127 0
c-71 0 -129 2 -129 5 -4 14 -5 246 -2 253 2 4 63 7 134 7 l130 0 -3 -132z"/>
</g>
</svg>
