<svg width="1894" height="460" viewBox="0 0 1894 460" fill="none" xmlns="http://www.w3.org/2000/svg">
<path fill-rule="evenodd" clip-rule="evenodd" d="M50.9286 453C79.0556 453 101.857 430.245 101.857 402.176H549.143C549.143 430.245 571.944 453 600.071 453C628.198 453 651 430.245 651 402.176V237.013C651 217.991 644.851 199.477 633.467 184.22L614.723 159.102H624.026C638.701 159.102 650.597 147.23 650.597 132.585C650.597 117.94 638.701 106.068 624.026 106.068H575.149L522.563 35.5977C505.849 13.1986 479.51 0 451.525 0H199.475C171.49 0 145.151 13.1986 128.437 35.5977L75.8511 106.068H26.5714C11.8964 106.068 0 117.94 0 132.585C0 147.23 11.8964 159.102 26.5714 159.102H36.2766L17.5333 184.22C6.14894 199.477 0 217.991 0 237.013V402.176C0 430.245 22.8015 453 50.9286 453ZM132.467 236.398C124.773 248.869 128.667 265.203 141.164 272.88C196.161 306.669 259.524 324.834 325.5 324.834C391.517 324.834 454.918 306.647 509.937 272.818C522.431 265.136 526.32 248.801 518.622 236.333C510.924 223.864 494.556 219.984 482.062 227.666C435.364 256.378 381.602 271.8 325.5 271.8C269.433 271.8 215.702 256.397 169.024 227.719C156.528 220.041 140.16 223.927 132.467 236.398Z" fill="#FF3859"/>
<path fill-rule="evenodd" clip-rule="evenodd" d="M1158.97 423.691C1172.15 440.449 1161.42 454.414 1135.68 454.414H1108.72C1090.94 454.414 1077.15 449.449 1069.19 439.208L955.19 305.453V425.863C955.19 444.173 945.078 454.414 926.998 454.414H898.192C880.113 454.414 870 444.173 870 425.863V29.8106C870 11.5009 880.113 1.25986 898.192 1.25986H926.998C945.078 1.25986 955.19 11.5009 955.19 29.8106V278.454L1068.88 163.32C1076.85 153.7 1090.33 149.355 1108.1 149.355H1132.62C1158.97 149.355 1169.7 163.941 1154.99 179.768L1042.53 291.178L1158.97 423.691ZM1312.24 460C1212.03 460 1157.18 402.588 1157.18 302.04C1157.18 201.181 1212.03 143.769 1312.24 143.769C1412.44 143.769 1467.3 201.181 1467.3 302.04C1467.3 402.588 1412.44 460 1312.24 460ZM1312.24 387.382C1358.2 387.382 1380.88 361.624 1380.88 302.04C1380.88 241.835 1358.2 216.387 1312.24 216.387C1266.27 216.387 1243.59 241.835 1243.59 302.04C1243.59 361.624 1266.27 387.382 1312.24 387.382ZM1699.81 173.251C1704.41 157.113 1714.83 149.355 1731.37 149.355H1762.32C1782.86 149.355 1792.05 162.079 1785.61 181.94L1724.33 370.313C1702.26 438.897 1679.89 460 1622.89 460C1566.2 460 1543.53 438.897 1521.46 370.313L1460.48 181.94C1454.05 162.079 1463.24 149.355 1483.77 149.355H1514.72C1531.27 149.355 1541.69 157.113 1546.28 173.251L1598.38 351.693C1608.13 399.17 1622.74 399.17 1622.89 399.17C1623.05 399.17 1635.77 399.17 1647.41 351.693L1699.81 173.251ZM1835.47 450.968C1817.39 450.968 1807.28 440.727 1807.28 422.417V174.46C1807.28 156.15 1817.39 145.909 1835.47 145.909H1865.81C1883.89 145.909 1894 156.15 1894 174.46V422.417C1894 440.727 1883.89 450.968 1865.81 450.968H1835.47ZM1835.47 90.4617C1817.39 90.4617 1807.28 80.2207 1807.28 61.911V28.5508C1807.28 10.241 1817.39 0 1835.47 0H1865.81C1883.89 0 1894 10.241 1894 28.5508V61.911C1894 80.2207 1883.89 90.4617 1865.81 90.4617H1835.47Z" fill="#333333"/>
</svg>
